<svg xmlns="http://www.w3.org/2000/svg" width="319.51" height="90.5" viewBox="0 0 319.51 90.5"><path d="M34.76,67.84,50.84,46.25V17H35.22V42L18.38,17H0V71.06H14.24V39.51ZM96,71.06h14.24V17H96Zm-21.29,0h16.4V0L38,71.06H54.82L77.18,41.35V57.58l-11.33.15Zm43.08-48h6.35l4.8,14.26h0l4.65-14.26h6.35V43.82H135.6V29.1h0l-5.11,14.72h-3.56l-4.8-14.72h0V43.67h-4.34Zm28.66,14.1c.15,2.63,1.39,3.87,3.72,3.87a3.44,3.44,0,0,0,3.25-2H157a6.64,6.64,0,0,1-7,5.11c-4.8,0-7.59-3.25-7.59-7.9,0-4.49,3.1-7.9,7.59-7.9,5.11,0,7.59,4.34,7.28,8.83Zm6.81-2.63c-.31-2-1.23-3.26-3.25-3.26a3.19,3.19,0,0,0-3.4,2.95v.35Zm5.89-5.89H163v2.79h0a5.44,5.44,0,0,1,4.81-3.25,2.1,2.1,0,0,1,.93.15V32.2a4.5,4.5,0,0,0-1.55-.15c-3,0-4,2.17-4,4.8v6.82H159v-15ZM174,26.47h-4.18V23.06H174Zm-4,2.17h4.18v15H170Zm6.81,0h3.87v2h.16a5.29,5.29,0,0,1,4.65-2.47c4.33,0,5.42,2.47,5.42,6.19v9.3h-4.18V35.3c0-2.48-.78-3.72-2.64-3.72-2.17,0-3.25,1.24-3.25,4.34v7.9h-4.18V28.64Zm22.77-5.58h4.5V31h8.36V23.1h4.49V43.82h-4.49v-9h-8.36v9h-4.5Zm33.93,20.61h-3.87v-2h-.16a5.3,5.3,0,0,1-4.65,2.48c-4.33,0-5.42-2.48-5.42-6.2V28.64h4.19v8.52c0,2.48.77,3.72,2.63,3.72,2.17,0,3.25-1.24,3.25-4.34v-7.9h4.18v15Zm2.48-15h3.87v2H240a5.28,5.28,0,0,1,4.64-2.47c4.34,0,5.43,2.47,5.43,6.19v9.3h-4V35.3c0-2.48-.78-3.72-2.64-3.72-2.16,0-3.25,1.24-3.25,4.34v7.9H236Zm21.84,0h2.94v2.79h-2.94v7.43c0,1.4.31,1.71,1.71,1.71a3.21,3.21,0,0,0,1.23-.16V43.7a12,12,0,0,1-2.47.15c-2.48,0-4.81-.62-4.81-3.56V31.43H251V28.64h2.48V24.15h4.19v4.49Zm7.9,8.52c.16,2.63,1.4,3.87,3.72,3.87a3.44,3.44,0,0,0,3.25-2h3.57a6.68,6.68,0,0,1-7,5.11c-4.8,0-7.59-3.25-7.59-7.9,0-4.49,3.1-7.9,7.59-7.9,5.12,0,7.6,4.34,7.29,8.83Zm6.66-2.63c-.31-2-1.24-3.26-3.25-3.26a3.19,3.19,0,0,0-3.4,2.95v.35Zm5.89-5.89h3.87v2.79h0a5.44,5.44,0,0,1,4.8-3.25,2.1,2.1,0,0,1,.93.15V32.2a4.44,4.44,0,0,0-1.54-.15c-2.95,0-4,2.17-4,4.8v6.82h-4.19v-15Zm-146.7,28a4.52,4.52,0,0,0-4.5-3.56c-4,0-5.57,3.4-5.57,7.12,0,3.41,1.55,7,5.57,7,2.79,0,4.34-1.86,4.65-4.64h4.34c-.47,5.11-4,8.52-9.14,8.52-6.35,0-10.23-4.81-10.23-10.69,0-6.2,3.72-11,10.23-11,4.49,0,8.36,2.63,9,7.43H131.6ZM145.05,55c4.65,0,7.75,3.09,7.75,7.9s-3.1,7.9-7.75,7.9-7.74-3.1-7.74-7.9S140.25,55,145.05,55Zm0,12.7c2.79,0,3.72-2.48,3.72-4.8,0-2.48-.77-4.81-3.72-4.81-2.78,0-3.56,2.48-3.56,4.81-.15,2.45.78,4.78,3.56,4.78Zm20.45.77h0a5.32,5.32,0,0,1-4.64,2.33c-4.5,0-6.67-3.88-6.67-8.06,0-4,2.17-7.74,6.67-7.74a5.51,5.51,0,0,1,4.49,2.16h0V49.55h4.18V70.31h-4Zm-3.56-10.38c-2.63,0-3.56,2.33-3.56,4.81,0,2.32,1.08,4.8,3.56,4.8,2.79,0,3.56-2.33,3.56-4.8s-.93-4.83-3.56-4.83Zm9.6-2.63h3.88v2h0A5.44,5.44,0,0,1,180.06,55c1.86,0,3.57.61,4.34,2.47A5.75,5.75,0,0,1,188.89,55c3.26,0,5.43,1.54,5.43,5.42v10h-4V62c0-2-.16-3.72-2.48-3.72S185,60.09,185,62.1v8.37h-4.18V62.1c0-1.7.15-3.72-2.48-3.72-.77,0-2.79.47-2.79,3.41v8.68h-4.18v-15ZM197,60.09c.15-3.88,3.72-5,7-5,2.94,0,6.51.62,6.51,4.34v7.74a9.38,9.38,0,0,0,.46,3.41h-4.18a4.39,4.39,0,0,1-.31-1.39,6.76,6.76,0,0,1-5.11,1.86c-2.79,0-5.11-1.4-5.11-4.5,0-3.4,2.47-4.18,5.11-4.49,2.48-.31,4.8-.31,4.8-2s-1.24-2-2.63-2c-1.55,0-2.64.62-2.79,2.33H197ZM206.4,63c-.62.62-2.17.62-3.41.93s-2.48.62-2.48,2.17S201.75,68,203,68a3.07,3.07,0,0,0,3.41-2.69h0a2.89,2.89,0,0,0,0-.72Zm6.82-7.59h3.87v2h.15A5.3,5.3,0,0,1,221.89,55c4.34,0,5.42,2.47,5.42,6.19v9.3h-4.18V62c0-2.48-.77-3.72-2.63-3.72-2.17,0-3.26,1.24-3.26,4.34v7.9h-4.18v-15ZM229.33,66h4.49v4.5a4.88,4.88,0,0,1-4.49,4.8v-2a2.47,2.47,0,0,0,2-2.79h-2Zm12.39-16.26h4.49V70.47h-4.49Zm7.44,5.73H253v2h.15A5.3,5.3,0,0,1,257.83,55c4.34,0,5.42,2.47,5.42,6.19v9.3h-4.18V62c0-2.48-.77-3.72-2.63-3.72-2.17,0-3.26,1.24-3.26,4.34v7.9h-4ZM276,60.71a2.93,2.93,0,0,0-3.1-2.64c-2.64,0-3.57,2.64-3.57,4.81s.78,4.64,3.41,4.64c1.86,0,2.95-1.24,3.26-3.09h4c-.46,4-3.25,6.19-7.28,6.19a7.38,7.38,0,0,1-7.6-7.12v-.62c0-4.65,2.79-8.06,7.59-8.06,3.57,0,6.82,1.86,7,5.73H276ZM281.53,66H286v4.5h-4.5ZM9.76,80.06a3.56,3.56,0,0,0-3.59-2.84c-3.1,0-4.41,2.59-4.41,5.15s1.31,5.15,4.41,5.15a3.82,3.82,0,0,0,3.75-3.75H11c-.31,2.87-2.13,4.7-4.87,4.7-3.69,0-5.53-2.9-5.53-6.1s1.84-6.1,5.53-6.1a4.48,4.48,0,0,1,4.7,3.79ZM20.13,84c0,2.42-1.42,4.47-4,4.47s-4-2-4-4.47,1.41-4.48,4-4.48S20.13,81.57,20.13,84Zm-7,0c0,1.8,1,3.6,3,3.6s3-1.8,3-3.6-1-3.61-3-3.61-3,1.8-3,3.61Zm8.52-4.24h1v1.43h0a2.94,2.94,0,0,1,2.77-1.67,2.36,2.36,0,0,1,2.43,1.65,2.85,2.85,0,0,1,2.69-1.65c1.85,0,2.8,1,2.8,3v5.74h-1V82.54c0-1.4-.53-2.15-2-2.15-1.79,0-2.3,1.47-2.3,3v4.79H27V82.49c0-1.15-.46-2.1-1.78-2.1-1.78,0-2.5,1.34-2.52,3.11v4.73h-1Zm13.66,0h1v1.43h0a3,3,0,0,1,2.77-1.67,2.34,2.34,0,0,1,2.43,1.65,2.85,2.85,0,0,1,2.69-1.65c1.85,0,2.8,1,2.8,3v5.74H46V82.54c0-1.4-.53-2.15-2-2.15-1.79,0-2.3,1.47-2.3,3v4.79h-1V82.49c0-1.15-.46-2.1-1.77-2.1-1.79,0-2.51,1.34-2.53,3.11v4.73h-1ZM49.6,84.27c0,1.51.8,3.33,2.79,3.33A2.57,2.57,0,0,0,55,85.44h1a3.46,3.46,0,0,1-3.69,3c-2.69,0-3.83-2.06-3.83-4.47,0-2.24,1.14-4.48,3.83-4.48s3.8,2.38,3.72,4.75Zm5.48-.87a2.84,2.84,0,0,0-2.67-3h0c-1.69,0-2.63,1.47-2.79,3Zm2.42-3.64h1v2h0a3.12,3.12,0,0,1,3.2-2.1v1a2.91,2.91,0,0,0-3.14,2.66c0,.11,0,.23,0,.34v4.51h-1Zm10.85,2.66a2.31,2.31,0,0,0-2.4-2c-2,0-3,1.8-3,3.61s1,3.6,3,3.6a2.52,2.52,0,0,0,2.46-2.41h1A3.43,3.43,0,0,1,66,88.47c-2.59,0-4-2-4-4.47s1.41-4.48,4-4.48a3.17,3.17,0,0,1,3.43,2.87v0Zm2.56-5.9h1v1.65h-1Zm0,3.24h1v8.47h-1Zm2.91,2.59c.1-2,1.5-2.83,3.43-2.83,1.49,0,3.12.46,3.12,2.72v4.49a.55.55,0,0,0,.46.63.38.38,0,0,0,.15,0,.71.71,0,0,0,.32-.07v.87a3,3,0,0,1-.67.07c-1,0-1.21-.59-1.21-1.48h0a3.25,3.25,0,0,1-3.09,1.72c-1.56,0-2.84-.77-2.84-2.47,0-2.38,2.32-2.46,4.55-2.73.85-.09,1.32-.21,1.32-1.14,0-1.4-1-1.74-2.21-1.74a2,2,0,0,0-2.26,2Zm5.51,1.25h0c-.13.25-.59.33-.87.38-1.75.31-3.93.29-3.93,2a1.76,1.76,0,0,0,1.84,1.67h0a2.71,2.71,0,0,0,3-2.4,2.29,2.29,0,0,0,0-.25Zm3.12-7.08h1V88.23h-1Zm7.78,0h5.36c1.93,0,3.56.93,3.56,3a2.81,2.81,0,0,1-2.28,3h0c1.52.19,2,1.24,2,2.64,0,.8,0,2.41.54,3H98.23a4.54,4.54,0,0,1-.31-1.82c-.1-1.64-.23-3.46-2.35-3.38H91.34v5.2H90.23Zm1.11,5.56h4.17A2.32,2.32,0,0,0,98,79.92a.49.49,0,0,0,0-.12,2.2,2.2,0,0,0-2-2.35,2.57,2.57,0,0,0-.48,0H91.34Zm10.24,2.19c0,1.51.8,3.33,2.78,3.33A2.58,2.58,0,0,0,107,85.44h1a3.45,3.45,0,0,1-3.69,3c-2.69,0-3.82-2.06-3.82-4.47,0-2.24,1.13-4.48,3.82-4.48s3.81,2.38,3.73,4.75Zm5.47-.87a2.84,2.84,0,0,0-2.67-3h0c-1.69,0-2.62,1.47-2.78,3Zm2.33-1.05c.1-2,1.49-2.83,3.43-2.83,1.49,0,3.12.46,3.12,2.72v4.49c0,.4.19.63.6.63a.75.75,0,0,0,.33-.07v.87a3,3,0,0,1-.67.07c-1,0-1.22-.59-1.22-1.48h0a3.22,3.22,0,0,1-3.08,1.72c-1.56,0-2.84-.77-2.84-2.47,0-2.38,2.31-2.46,4.54-2.73.86-.09,1.33-.21,1.33-1.14,0-1.4-1-1.74-2.21-1.74a2,2,0,0,0-2.26,2Zm5.51,1.25h0c-.13.25-.59.33-.87.38-1.75.31-3.94.29-3.94,2a1.76,1.76,0,0,0,1.84,1.67h0a2.71,2.71,0,0,0,3-2.4,2.29,2.29,0,0,0,0-.25ZM118,76.52h1V88.23h-1Zm7.77,0h8.09v1h-7V81.7h6.53v1H126.9v4.63h7v1h-8.17Zm14.6,5.72a1.94,1.94,0,0,0-2-1.87l-.2,0c-.92,0-2,.36-2,1.46,0,.92,1,1.24,1.75,1.42l1.38.31a2.5,2.5,0,0,1,2.41,2.35c0,1.84-1.82,2.54-3.4,2.54-2,0-3.31-.92-3.47-3h1a2.23,2.23,0,0,0,2.33,2.12h.16c1,0,2.32-.42,2.32-1.6,0-1-.92-1.32-1.86-1.54l-1.33-.3c-1.34-.36-2.36-.82-2.36-2.26,0-1.73,1.69-2.38,3.18-2.38a2.79,2.79,0,0,1,3.1,2.72Zm4.46-2.48h1.72v.87h-1.72v5.71c0,.67.1,1.07.84,1.12.29,0,.59,0,.88,0v.88h-.92c-1.37,0-1.85-.45-1.83-1.9V80.63h-1.48v-.87h1.48V77.22h1ZM148,82.35c.1-2,1.49-2.83,3.43-2.83,1.49,0,3.11.46,3.11,2.72v4.49a.55.55,0,0,0,.46.63.38.38,0,0,0,.15,0,.93.93,0,0,0,.33-.07v.87a3.08,3.08,0,0,1-.68.07c-1,0-1.21-.59-1.21-1.48h0a3.23,3.23,0,0,1-3.09,1.72c-1.56,0-2.83-.77-2.83-2.47,0-2.38,2.31-2.46,4.54-2.73.85-.09,1.33-.21,1.33-1.14,0-1.4-1-1.74-2.22-1.74a2,2,0,0,0-2.26,2Zm5.51,1.25h0c-.14.25-.59.33-.87.38-1.76.31-3.94.29-3.94,2a1.76,1.76,0,0,0,1.84,1.67h.05a2.72,2.72,0,0,0,2.88-2.55V85Zm4.74-3.84H160v.87h-1.72v5.71c0,.67.1,1.07.83,1.12.3,0,.59,0,.89,0v.88h-.92c-1.38,0-1.85-.45-1.84-1.9V80.63H155.7v-.87h1.47V77.22h1ZM162,84.27c0,1.51.8,3.33,2.79,3.33a2.56,2.56,0,0,0,2.65-2.16h1a3.46,3.46,0,0,1-3.69,3c-2.69,0-3.83-2.06-3.83-4.47,0-2.24,1.14-4.48,3.83-4.48s3.8,2.38,3.72,4.75Zm5.48-.87a2.84,2.84,0,0,0-2.67-3h0c-1.69,0-2.63,1.47-2.79,3Zm7.71,1c-.05,2.41,1.69,3.15,3.82,3.15,1.23,0,3.1-.67,3.1-2.38,0-1.33-1.33-1.85-2.41-2.11l-2.61-.64c-1.38-.35-2.64-1-2.64-2.82,0-1.15.74-3.3,4-3.3,2.32,0,4.35,1.25,4.33,3.64h-1.11c-.07-1.79-1.55-2.69-3.2-2.69s-2.94.59-2.94,2.33c0,1.1.82,1.56,1.77,1.79l2.86.7c1.65.45,3,1.17,3,3.09,0,.8-.33,3.34-4.47,3.34-2.78,0-4.81-1.24-4.68-4.1Zm10.21-.1c0,1.51.81,3.33,2.79,3.33a2.57,2.57,0,0,0,2.66-2.16h1a3.45,3.45,0,0,1-3.69,3c-2.69,0-3.82-2.06-3.82-4.47,0-2.24,1.13-4.48,3.82-4.48s3.81,2.38,3.72,4.75Zm5.48-.87a2.84,2.84,0,0,0-2.67-3h0c-1.69,0-2.62,1.47-2.79,3Zm2.43-3.64h.95v2h0a3.12,3.12,0,0,1,3.2-2.1v1a2.92,2.92,0,0,0-3.14,2.68c0,.11,0,.21,0,.32V88.2h-1Zm4.21,0h1.15l2.66,7.43h0L204,79.76h1.06l-3.16,8.47h-1.1Zm8.57-1.59h1V76.52h-1Zm0,10.06h1v-8.5h-1Zm9-5.81a2.29,2.29,0,0,0-2.39-2c-2,0-3,1.8-3,3.61s1,3.6,3,3.6a2.52,2.52,0,0,0,2.46-2.41h1a3.44,3.44,0,0,1-3.49,3.28c-2.59,0-4-2-4-4.47s1.41-4.48,4-4.48a3.17,3.17,0,0,1,3.43,2.89h0Zm3.15,1.85c0,1.51.81,3.33,2.79,3.33a2.57,2.57,0,0,0,2.66-2.16h1a3.45,3.45,0,0,1-3.69,3c-2.69,0-3.82-2.06-3.82-4.47,0-2.24,1.13-4.48,3.82-4.48s3.8,2.38,3.72,4.75Zm5.48-.87a2.84,2.84,0,0,0-2.67-3h0c-1.69,0-2.62,1.47-2.79,3Zm7.5-1.16a2,2,0,0,0-2.1-1.89H229c-.92,0-2,.36-2,1.46,0,.92,1.05,1.24,1.75,1.42l1.38.31a2.5,2.5,0,0,1,2.41,2.35c0,1.84-1.82,2.54-3.39,2.54-2,0-3.31-.92-3.48-3h1A2.23,2.23,0,0,0,229,87.59h.15c1,0,2.31-.42,2.31-1.6,0-1-.92-1.32-1.85-1.54l-1.33-.3c-1.3-.34-2.3-.8-2.3-2.24,0-1.73,1.69-2.38,3.18-2.38a2.79,2.79,0,0,1,3.1,2.72Zm3.42,4.25v1.74h.69a1.59,1.59,0,0,1-.75,1.54v.7A2.24,2.24,0,0,0,236,88.24V86.49Zm7.53-10h1.2L246,86.77h0l2.85-10.25h1.4l2.87,10.25h0l2.67-10.25H257l-3.23,11.71H252.6l-3-10.48h0l-3,10.48h-1.21ZM265.33,84c0,2.42-1.41,4.47-4,4.47s-4-2-4-4.47,1.41-4.48,4-4.48S265.33,81.57,265.33,84Zm-7,0c0,1.8,1,3.6,3,3.6s3-1.8,3-3.6-1-3.61-3-3.61-3,1.8-3,3.61Zm8.51-4.24h1v2h0a3.12,3.12,0,0,1,3.2-2.1v1a2.92,2.92,0,0,0-3.14,2.68c0,.11,0,.21,0,.32v4.51h-1ZM272,76.52h1V88.23h-1Zm10.46,11.71h-1V86.62h0a3.35,3.35,0,0,1-3,1.85c-2.57,0-3.8-2.08-3.8-4.47s1.23-4.48,3.8-4.48a3,3,0,0,1,2.94,1.85h0V76.52h1Zm-4-.63c2.2,0,3-1.85,3-3.6s-.77-3.61-3-3.61c-2,0-2.77,1.85-2.77,3.61s.83,3.6,2.8,3.6Zm5.12-7.84h1.1L286.89,87h0L289,79.76h1.17L292.22,87h0l2.16-7.25h1.1l-2.72,8.47h-1.13l-2.09-7.12h0l-2.07,7.12h-1.13Zm13-1.59h1V76.52h-1Zm0,10.06h1V79.76h-1Zm10.47,0h-.95V86.62h0a3.35,3.35,0,0,1-3,1.85c-2.57,0-3.8-2.08-3.8-4.47s1.23-4.48,3.8-4.48a3,3,0,0,1,2.94,1.85h0V76.52h1Zm-4-.63c2.2,0,3-1.85,3-3.6s-.77-3.61-3-3.61c-2,0-2.77,1.85-2.77,3.61s.85,3.6,2.81,3.6Zm6.58-3.33c0,1.51.8,3.33,2.79,3.33a2.57,2.57,0,0,0,2.66-2.16h1a3.45,3.45,0,0,1-3.69,3c-2.69,0-3.82-2.06-3.82-4.47,0-2.24,1.13-4.48,3.82-4.48s3.8,2.38,3.72,4.75Zm5.48-.87a2.84,2.84,0,0,0-2.67-3h0c-1.69,0-2.62,1.47-2.79,3Zm3,4.83V86.49h1.38v1.74Z" fill="#fff"/></svg>